<?xml version="1.0" encoding="UTF-8"?>
<svg xmlns="http://www.w3.org/2000/svg" xmlns:xlink="http://www.w3.org/1999/xlink" width="2000px" height="2000px" viewBox="0 0 2000 2000" version="1.1">
<g id="surface1">
<path style=" stroke:none;fill-rule:nonzero;fill:rgb(0%,0%,0%);fill-opacity:1;" d="M 1081.261719 698.046875 C 1079.929688 701.15625 1079.484375 758.882812 1079.929688 825.933594 C 1081.261719 940.054688 1081.707031 948.046875 1089.253906 949.378906 C 1093.695312 950.265625 1101.242188 947.601562 1106.128906 943.160156 C 1114.121094 936.058594 1115.007812 936.058594 1122.558594 942.71875 C 1127.441406 947.15625 1138.097656 950.265625 1148.757812 950.265625 C 1185.613281 950.265625 1207.816406 915.628906 1207.816406 859.234375 C 1207.816406 789.078125 1172.734375 754.882812 1128.773438 781.527344 C 1120.78125 786.410156 1113.675781 790.410156 1112.34375 790.410156 C 1111.457031 790.410156 1109.679688 769.09375 1109.234375 742.449219 L 1107.902344 694.9375 L 1095.46875 693.605469 C 1088.367188 692.71875 1082.59375 694.492188 1081.261719 698.046875 Z M 1169.183594 821.9375 C 1179.394531 840.585938 1177.621094 890.765625 1166.074219 908.082031 C 1156.75 922.292969 1138.542969 926.730469 1123.890625 918.738281 C 1112.789062 912.523438 1112.34375 909.859375 1111.011719 870.335938 C 1109.679688 823.710938 1113.675781 810.835938 1131.882812 804.617188 C 1148.3125 798.84375 1159.859375 804.175781 1169.183594 821.9375 Z M 1169.183594 821.9375 "/>
<path style=" stroke:none;fill-rule:nonzero;fill:rgb(0%,0%,0%);fill-opacity:1;" d="M 1246.449219 700.710938 C 1236.679688 711.367188 1237.121094 729.574219 1246.890625 738.453125 C 1257.550781 748.222656 1262.433594 747.78125 1271.3125 738.011719 C 1281.082031 727.351562 1280.640625 709.148438 1270.871094 700.265625 C 1260.214844 690.496094 1255.328125 690.941406 1246.449219 700.710938 Z M 1246.449219 700.710938 "/>
<path style=" stroke:none;fill-rule:nonzero;fill:rgb(0%,0%,0%);fill-opacity:1;" d="M 1321.046875 698.046875 C 1319.714844 701.15625 1319.273438 758.882812 1319.714844 825.933594 L 1321.046875 948.046875 L 1347.691406 948.046875 L 1347.691406 694.9375 L 1335.257812 693.605469 C 1328.152344 692.71875 1322.378906 694.492188 1321.046875 698.046875 Z M 1321.046875 698.046875 "/>
<path style=" stroke:none;fill-rule:nonzero;fill:rgb(0%,0%,0%);fill-opacity:1;" d="M 1403.640625 701.15625 C 1398.3125 706.484375 1394.316406 714.476562 1394.316406 719.359375 C 1394.316406 730.019531 1410.300781 747.335938 1417.851562 744.671875 C 1420.960938 743.785156 1426.289062 737.566406 1429.839844 731.351562 C 1435.613281 720.691406 1435.613281 718.027344 1429.839844 707.371094 C 1420.960938 691.828125 1414.742188 690.054688 1403.640625 701.15625 Z M 1403.640625 701.15625 "/>
<path style=" stroke:none;fill-rule:nonzero;fill:rgb(0%,0%,0%);fill-opacity:1;" d="M 8.882812 703.820312 C 8.882812 705.152344 24.421875 737.566406 43.074219 776.199219 L 77.707031 845.914062 L 79.929688 896.980469 L 82.148438 948.046875 L 113.234375 948.046875 L 117.671875 845.914062 L 152.308594 776.644531 C 170.960938 738.011719 186.5 705.59375 186.5 704.261719 C 186.5 702.929688 178.953125 701.597656 169.183594 701.597656 C 152.308594 701.597656 151.863281 702.042969 137.65625 731.351562 C 129.664062 748.222656 120.335938 769.539062 116.339844 779.308594 C 107.902344 801.066406 97.246094 817.941406 94.136719 814.832031 C 92.804688 813.5 88.367188 803.285156 84.371094 791.742188 C 79.929688 779.75 69.273438 754.882812 60.390625 735.789062 C 43.960938 701.597656 43.960938 701.597656 26.199219 701.597656 C 16.875 701.597656 8.882812 702.488281 8.882812 703.820312 Z M 8.882812 703.820312 "/>
<path style=" stroke:none;fill-rule:nonzero;fill:rgb(0%,0%,0%);fill-opacity:1;" d="M 461.8125 706.039062 C 461.8125 708.257812 477.351562 742.007812 496.003906 780.195312 L 530.640625 850.355469 L 531.972656 900.53125 L 533.746094 950.710938 L 549.734375 949.378906 L 566.164062 948.046875 L 567.496094 899.199219 C 568.382812 862.34375 570.605469 845.914062 576.820312 832.59375 C 583.480469 819.273438 624.332031 733.570312 638.542969 704.707031 C 639.429688 702.929688 631.4375 701.597656 620.78125 701.597656 C 603.464844 701.597656 601.242188 702.929688 595.46875 715.808594 C 591.917969 723.800781 582.59375 745.117188 574.601562 763.320312 C 566.164062 781.527344 559.503906 798.402344 559.503906 801.511719 C 559.503906 806.839844 546.625 814.832031 543.515625 811.722656 C 543.074219 810.835938 538.1875 799.734375 532.859375 786.410156 C 527.976562 773.089844 517.316406 748.667969 509.769531 731.792969 C 496.003906 702.042969 495.558594 701.597656 478.6875 701.597656 C 469.359375 701.597656 461.8125 703.375 461.8125 706.039062 Z M 461.8125 706.039062 "/>
<path style=" stroke:none;fill-rule:nonzero;fill:rgb(0%,0%,0%);fill-opacity:1;" d="M 212.253906 782.414062 C 195.382812 792.183594 191.828125 800.175781 199.378906 812.167969 C 202.929688 817.496094 205.59375 817.496094 218.917969 811.277344 C 250.445312 796.179688 272.648438 806.839844 269.980469 835.257812 C 268.648438 849.023438 267.316406 850.355469 249.113281 853.464844 C 202.929688 861.457031 176.289062 889.875 186.5 920.960938 C 189.164062 928.953125 195.382812 939.609375 200.265625 944.050781 C 211.8125 954.261719 239.785156 954.261719 254.882812 944.050781 C 269.09375 935.167969 275.3125 935.167969 281.972656 944.492188 C 285.078125 948.488281 290.410156 950.710938 294.847656 948.933594 C 301.066406 946.714844 301.953125 937.832031 301.953125 886.765625 C 301.953125 813.941406 299.734375 802.398438 283.304688 785.523438 C 272.648438 774.867188 266.429688 772.648438 249.554688 772.648438 C 236.234375 772.648438 222.46875 776.199219 212.253906 782.414062 Z M 269.980469 892.984375 C 271.3125 906.75 269.09375 910.746094 257.992188 918.738281 C 234.902344 935.167969 217.585938 928.953125 217.585938 903.640625 C 217.585938 893.429688 220.25 888.097656 227.796875 884.546875 C 257.550781 870.335938 268.207031 872.113281 269.980469 892.984375 Z M 269.980469 892.984375 "/>
<path style=" stroke:none;fill-rule:nonzero;fill:rgb(0%,0%,0%);fill-opacity:1;" d="M 340.585938 775.753906 C 334.8125 781.082031 337.476562 798.402344 344.582031 801.066406 C 348.578125 802.398438 362.34375 803.730469 375.667969 803.730469 C 395.648438 803.730469 399.644531 805.0625 399.644531 811.722656 C 399.644531 816.164062 384.546875 843.25 366.339844 872.558594 C 345.46875 905.863281 333.039062 929.839844 333.039062 937.832031 L 333.039062 950.265625 L 383.660156 950.265625 C 432.949219 950.265625 443.160156 947.601562 441.828125 934.726562 C 440.941406 922.292969 433.390625 919.183594 403.640625 919.183594 C 386.765625 919.183594 373 917.851562 373 916.074219 C 373 914.742188 386.765625 890.765625 404.085938 863.675781 C 420.960938 836.589844 437.390625 808.171875 440.054688 800.175781 C 448.933594 774.867188 445.382812 772.648438 391.652344 772.648438 C 365.007812 772.648438 341.917969 773.980469 340.585938 775.753906 Z M 340.585938 775.753906 "/>
<path style=" stroke:none;fill-rule:nonzero;fill:rgb(0%,0%,0%);fill-opacity:1;" d="M 665.628906 779.75 C 647.425781 789.519531 642.539062 797.070312 648.3125 807.726562 C 654.085938 818.828125 660.746094 819.273438 672.292969 810.390625 C 682.949219 802.398438 707.816406 801.511719 714.03125 809.058594 C 716.695312 812.167969 719.804688 822.378906 721.582031 831.261719 C 724.6875 846.804688 723.800781 847.691406 712.253906 850.355469 C 680.285156 857.015625 662.964844 863.675781 651.863281 874.332031 C 641.207031 883.660156 639.429688 888.542969 639.429688 911.191406 C 639.429688 933.835938 640.765625 937.390625 651.421875 944.492188 C 667.40625 955.152344 693.605469 953.820312 708.703125 941.828125 C 723.355469 930.285156 726.464844 930.285156 729.574219 941.828125 C 731.351562 948.488281 734.902344 950.710938 742.449219 949.378906 C 752.664062 948.046875 752.664062 948.046875 752.664062 879.21875 C 752.664062 819.273438 751.777344 808.613281 744.226562 796.179688 C 739.34375 788.632812 730.90625 780.195312 725.132812 777.53125 C 710.921875 770.871094 679.839844 772.203125 665.628906 779.75 Z M 722.914062 884.992188 C 726.019531 900.53125 719.359375 914.742188 705.59375 921.847656 C 687.390625 931.171875 671.402344 926.730469 667.851562 911.632812 C 663.855469 896.535156 670.070312 887.210938 688.722656 880.550781 C 708.703125 873.445312 721.136719 875.222656 722.914062 884.992188 Z M 722.914062 884.992188 "/>
<path style=" stroke:none;fill-rule:nonzero;fill:rgb(0%,0%,0%);fill-opacity:1;" d="M 791.296875 786.855469 C 792.628906 801.511719 792.628906 801.511719 813.5 800.175781 C 838.808594 798.402344 852.574219 801.953125 852.574219 810.835938 C 852.574219 814.386719 839.699219 837.476562 824.15625 862.789062 C 784.636719 925.398438 777.976562 940.941406 785.96875 945.824219 C 794.40625 951.15625 879.21875 951.597656 887.210938 946.269531 C 890.765625 944.492188 892.539062 937.832031 891.652344 932.058594 C 890.320312 922.292969 888.097656 921.402344 858.347656 920.070312 C 838.367188 919.183594 825.933594 916.960938 825.933594 913.855469 C 825.933594 911.191406 838.367188 889.875 853.464844 866.339844 C 888.542969 811.722656 898.3125 792.183594 894.761719 781.082031 C 892.097656 773.535156 887.65625 772.648438 841.03125 772.648438 L 789.964844 772.648438 Z M 791.296875 786.855469 "/>
<path style=" stroke:none;fill-rule:nonzero;fill:rgb(0%,0%,0%);fill-opacity:1;" d="M 952.042969 779.308594 C 932.503906 788.1875 926.289062 796.625 932.503906 807.726562 C 938.277344 819.273438 939.609375 819.273438 960.480469 808.613281 C 979.574219 798.84375 992.007812 800.621094 1001.332031 813.941406 C 1014.652344 833.039062 1007.992188 852.574219 988.011719 852.574219 C 984.457031 852.574219 971.136719 856.570312 958.257812 861.457031 C 941.828125 867.671875 932.503906 874.332031 927.175781 884.101562 C 900.089844 931.171875 951.15625 974.246094 994.226562 940.496094 C 1004.882812 932.503906 1005.328125 932.503906 1015.097656 941.828125 C 1020.871094 947.15625 1028.417969 950.265625 1031.972656 948.933594 C 1037.746094 946.714844 1039.078125 936.058594 1039.078125 882.769531 C 1039.078125 812.609375 1031.972656 787.746094 1009.769531 777.976562 C 995.117188 771.3125 969.359375 771.757812 952.042969 779.308594 Z M 1007.105469 892.984375 C 1008.4375 906.75 1006.214844 910.746094 995.117188 918.738281 C 979.574219 929.839844 969.359375 930.726562 958.257812 920.515625 C 941.828125 905.863281 949.824219 887.210938 975.578125 879.21875 C 998.667969 872.113281 1005.773438 875.222656 1007.105469 892.984375 Z M 1007.105469 892.984375 "/>
<path style=" stroke:none;fill-rule:nonzero;fill:rgb(0%,0%,0%);fill-opacity:1;" d="M 1246.449219 775.3125 C 1244.671875 777.085938 1243.339844 816.164062 1243.339844 861.902344 C 1243.339844 934.726562 1244.226562 945.382812 1250.445312 947.601562 C 1254.441406 949.378906 1261.546875 949.378906 1266.429688 947.601562 C 1273.980469 945.382812 1274.421875 940.054688 1273.535156 860.125 L 1272.203125 774.867188 L 1261.101562 773.535156 C 1254.882812 772.648438 1248.222656 773.535156 1246.449219 775.3125 Z M 1246.449219 775.3125 "/>
<path style=" stroke:none;fill-rule:nonzero;fill:rgb(0%,0%,0%);fill-opacity:1;" d="M 1400.53125 778.417969 C 1399.644531 781.527344 1399.199219 821.046875 1399.644531 865.898438 L 1400.976562 948.046875 L 1427.621094 948.046875 L 1428.953125 870.335938 C 1430.285156 779.308594 1429.394531 772.648438 1413.855469 772.648438 C 1408.082031 772.648438 1401.863281 775.3125 1400.53125 778.417969 Z M 1400.53125 778.417969 "/>
<path style=" stroke:none;fill-rule:nonzero;fill:rgb(0%,0%,0%);fill-opacity:1;" d="M 1477.351562 775.753906 C 1472.023438 780.640625 1473.800781 944.9375 1479.128906 948.046875 C 1481.351562 949.824219 1488.453125 949.824219 1494.671875 948.488281 C 1505.328125 945.824219 1505.328125 945.382812 1505.328125 890.765625 C 1505.328125 837.921875 1505.773438 834.8125 1516.875 821.9375 C 1525.3125 811.277344 1531.972656 808.171875 1543.515625 808.171875 C 1558.171875 808.171875 1558.613281 807.726562 1558.613281 790.410156 C 1558.613281 774.421875 1557.726562 772.648438 1547.070312 772.648438 C 1540.410156 772.648438 1528.417969 778.417969 1519.539062 786.855469 L 1503.550781 800.621094 L 1500 786.855469 C 1496.449219 773.535156 1484.902344 767.761719 1477.351562 775.753906 Z M 1477.351562 775.753906 "/>
<path style=" stroke:none;fill-rule:nonzero;fill:rgb(0%,0%,0%);fill-opacity:1;" d="M 1609.679688 777.976562 C 1595.914062 785.96875 1591.472656 791.742188 1585.257812 809.058594 C 1580.371094 822.378906 1580.371094 827.707031 1585.703125 842.363281 C 1591.03125 856.128906 1596.804688 861.902344 1618.117188 872.558594 C 1648.3125 888.097656 1657.195312 899.199219 1651.421875 913.410156 C 1646.535156 926.730469 1630.105469 930.285156 1609.679688 921.847656 C 1597.246094 916.519531 1591.472656 916.074219 1587.035156 919.628906 C 1577.265625 927.621094 1579.929688 936.058594 1593.25 943.160156 C 1618.5625 956.484375 1647.425781 954.261719 1666.074219 937.390625 C 1678.953125 926.289062 1680.285156 922.292969 1680.285156 900.089844 C 1680.726562 870.78125 1675.398438 863.675781 1638.542969 845.027344 C 1611.902344 831.707031 1606.570312 821.492188 1619.003906 807.726562 C 1627.441406 798.402344 1643.429688 796.625 1655.863281 804.617188 C 1666.519531 811.277344 1678.507812 806.394531 1678.507812 795.292969 C 1678.507812 777.085938 1631.4375 765.542969 1609.679688 777.976562 Z M 1609.679688 777.976562 "/>
<path style=" stroke:none;fill-rule:nonzero;fill:rgb(0%,0%,0%);fill-opacity:1;" d="M 1742.007812 782.414062 C 1718.027344 799.734375 1708.703125 821.9375 1708.703125 861.457031 C 1708.703125 886.765625 1710.921875 900.53125 1717.585938 912.964844 C 1732.683594 943.160156 1741.5625 948.046875 1778.863281 948.046875 C 1807.726562 948.046875 1812.609375 946.714844 1822.824219 936.945312 C 1832.59375 926.730469 1833.480469 924.511719 1827.707031 916.960938 C 1821.9375 908.96875 1821.046875 908.96875 1805.0625 916.519531 C 1775.753906 930.726562 1750.886719 920.070312 1740.230469 888.542969 C 1733.125 868.117188 1738.453125 865.898438 1790.410156 865.898438 C 1832.59375 865.898438 1833.925781 865.453125 1836.589844 855.238281 C 1841.917969 833.480469 1820.160156 786.855469 1800.621094 777.976562 C 1782.414062 769.539062 1757.550781 771.757812 1742.007812 782.414062 Z M 1798.402344 811.277344 C 1803.285156 817.941406 1807.28125 827.265625 1806.394531 832.148438 C 1805.0625 840.585938 1801.953125 841.472656 1773.980469 841.472656 C 1746.449219 841.472656 1742.894531 840.585938 1741.5625 832.59375 C 1741.117188 827.707031 1745.117188 818.382812 1750.445312 811.722656 C 1764.210938 794.847656 1785.523438 794.847656 1798.402344 811.277344 Z M 1798.402344 811.277344 "/>
<path style=" stroke:none;fill-rule:nonzero;fill:rgb(0%,0%,0%);fill-opacity:1;" d="M 1871.226562 778.417969 C 1870.335938 781.527344 1869.894531 821.046875 1870.335938 865.898438 L 1871.667969 948.046875 L 1898.3125 948.046875 L 1899.199219 890.320312 C 1900.976562 817.050781 1901.863281 813.5 1920.960938 805.507812 C 1935.167969 799.734375 1938.277344 799.734375 1947.15625 805.507812 C 1960.035156 813.941406 1962.699219 829.039062 1962.699219 892.539062 C 1962.699219 949.378906 1964.476562 953.375 1987.566406 947.601562 C 1998.222656 944.9375 1998.222656 944.492188 1998.222656 890.765625 C 1998.222656 809.503906 1981.792969 773.089844 1945.824219 772.648438 C 1937.390625 772.648438 1924.957031 777.085938 1917.40625 781.972656 L 1904.53125 791.296875 L 1895.648438 781.972656 C 1885.878906 771.3125 1874.777344 769.980469 1871.226562 778.417969 Z M 1871.226562 778.417969 "/>
</g>
</svg>
